<svg xmlns="http://www.w3.org/2000/svg" xmlns:xlink="http://www.w3.org/1999/xlink" width="48" zoomAndPan="magnify" viewBox="0 0 36 36.000001" height="48" preserveAspectRatio="xMidYMid meet" version="1.0"><defs><filter x="0%" y="0%" width="100%" height="100%" id="a474c0cc8d"><feColorMatrix values="0 0 0 0 1 0 0 0 0 1 0 0 0 0 1 0 0 0 1 0" color-interpolation-filters="sRGB"/></filter><clipPath id="7c1e479988"><path d="M 0.488281 0 L 35.511719 0 L 35.511719 35.027344 L 0.488281 35.027344 Z M 0.488281 0 " clip-rule="nonzero"/></clipPath><clipPath id="c303d5ceee"><path d="M 0.488281 0 L 35.511719 0 L 35.511719 35.027344 L 0.488281 35.027344 Z M 0.488281 0 " clip-rule="nonzero"/></clipPath><clipPath id="ccecae68ac"><path d="M 18 0 C 8.328125 0 0.488281 7.839844 0.488281 17.511719 C 0.488281 27.1875 8.328125 35.027344 18 35.027344 C 27.671875 35.027344 35.511719 27.1875 35.511719 17.511719 C 35.511719 7.839844 27.671875 0 18 0 Z M 18 0 " clip-rule="nonzero"/></clipPath><clipPath id="11a1c7efd5"><path d="M 9 1.566406 L 26 1.566406 L 26 19 L 9 19 Z M 9 1.566406 " clip-rule="nonzero"/></clipPath><clipPath id="132b906db6"><path d="M 9 1.566406 L 26 1.566406 L 26 19 L 9 19 Z M 9 1.566406 " clip-rule="nonzero"/></clipPath><mask id="6c35ebd204"><g filter="url(#a474c0cc8d)"><rect x="-3.6" width="43.2" fill="#000000" y="-3.6" height="43.200001" fill-opacity="0.5"/></g></mask><clipPath id="ff208559fc"><path d="M 0.503906 0.40625 L 3 0.40625 L 3 3.910156 L 0.503906 3.910156 Z M 0.503906 0.40625 " clip-rule="nonzero"/></clipPath><clipPath id="533b529e63"><rect x="0" width="4" y="0" height="4"/></clipPath><mask id="fb31a0afe1"><g filter="url(#a474c0cc8d)"><rect x="-3.6" width="43.2" fill="#000000" y="-3.6" height="43.200001" fill-opacity="0.5"/></g></mask><clipPath id="3526595449"><path d="M 0.570312 1 L 2.4375 1 L 2.4375 2.777344 L 0.570312 2.777344 Z M 0.570312 1 " clip-rule="nonzero"/></clipPath><clipPath id="4d168318e5"><rect x="0" width="3" y="0" height="3"/></clipPath><clipPath id="84ee887bfc"><path d="M 5.527344 15 L 30 15 L 30 30.757812 L 5.527344 30.757812 Z M 5.527344 15 " clip-rule="nonzero"/></clipPath><clipPath id="4c4f6158d0"><path d="M 5.527344 15 L 30.335938 15 L 30.335938 30.757812 L 5.527344 30.757812 Z M 5.527344 15 " clip-rule="nonzero"/></clipPath><clipPath id="b459ba0a36"><path d="M 5.527344 24 L 9 24 L 9 30.757812 L 5.527344 30.757812 Z M 5.527344 24 " clip-rule="nonzero"/></clipPath><clipPath id="390f69a9fe"><path d="M 27 24 L 30 24 L 30 30.757812 L 27 30.757812 Z M 27 24 " clip-rule="nonzero"/></clipPath><clipPath id="ee7e2f1d74"><path d="M 5.527344 25 L 8 25 L 8 27 L 5.527344 27 Z M 5.527344 25 " clip-rule="nonzero"/></clipPath><clipPath id="6544cb8f5b"><path d="M 5.527344 25 L 30 25 L 30 30.757812 L 5.527344 30.757812 Z M 5.527344 25 " clip-rule="nonzero"/></clipPath></defs><g clip-path="url(#7c1e479988)"><path fill="#ffffff" d="M 0.488281 0 L 35.511719 0 L 35.511719 35.027344 L 0.488281 35.027344 Z M 0.488281 0 " fill-opacity="1" fill-rule="nonzero"/><path fill="#ffffff" d="M 0.488281 0 L 35.511719 0 L 35.511719 35.027344 L 0.488281 35.027344 Z M 0.488281 0 " fill-opacity="1" fill-rule="nonzero"/></g><g clip-path="url(#c303d5ceee)"><g clip-path="url(#ccecae68ac)"><path fill="#858afa" d="M 0.488281 0 L 35.511719 0 L 35.511719 35.027344 L 0.488281 35.027344 Z M 0.488281 0 " fill-opacity="1" fill-rule="nonzero"/></g></g><path fill="#ffffff" d="M 23.964844 16.628906 L 23.964844 24.855469 C 23.964844 25.191406 23.695312 25.464844 23.363281 25.464844 L 11.820312 25.464844 C 11.484375 25.464844 11.21875 25.191406 11.21875 24.855469 L 11.21875 16.628906 C 11.21875 16.292969 11.484375 16.019531 11.820312 16.019531 L 23.363281 16.019531 C 23.695312 16.019531 23.964844 16.292969 23.964844 16.628906 Z M 23.964844 16.628906 " fill-opacity="1" fill-rule="nonzero"/><path fill="#371a45" d="M 23.363281 25.628906 L 11.820312 25.628906 C 11.394531 25.628906 11.050781 25.28125 11.050781 24.855469 L 11.050781 16.628906 C 11.050781 16.203125 11.394531 15.855469 11.820312 15.855469 L 23.363281 15.855469 C 23.785156 15.855469 24.125 16.203125 24.125 16.628906 L 24.125 24.855469 C 24.125 25.28125 23.785156 25.628906 23.363281 25.628906 Z M 11.820312 16.1875 C 11.578125 16.1875 11.378906 16.386719 11.378906 16.628906 L 11.378906 24.855469 C 11.378906 25.101562 11.578125 25.300781 11.820312 25.300781 L 23.363281 25.300781 C 23.605469 25.300781 23.800781 25.101562 23.800781 24.855469 L 23.800781 16.628906 C 23.800781 16.386719 23.605469 16.1875 23.363281 16.1875 Z M 11.820312 16.1875 " fill-opacity="1" fill-rule="nonzero"/><path fill="#ffffff" d="M 25.351562 12.46875 L 25.203125 12.46875 C 25.121094 12.46875 25.050781 12.402344 25.050781 12.320312 L 24.996094 7.554688 C 24.992188 7.472656 25.058594 7.402344 25.140625 7.402344 L 25.292969 7.398438 C 26.160156 7.386719 26.871094 8.089844 26.882812 8.96875 L 26.90625 10.859375 C 26.914062 11.738281 26.21875 12.457031 25.351562 12.46875 Z M 25.351562 12.46875 " fill-opacity="1" fill-rule="nonzero"/><path fill="#371a45" d="M 25.203125 12.515625 C 25.09375 12.515625 25.003906 12.429688 25.003906 12.320312 L 24.949219 7.554688 C 24.945312 7.5 24.96875 7.453125 25.003906 7.414062 C 25.039062 7.375 25.089844 7.355469 25.140625 7.355469 L 25.292969 7.351562 C 25.296875 7.351562 25.304688 7.351562 25.3125 7.351562 C 26.195312 7.351562 26.917969 8.074219 26.929688 8.96875 L 26.953125 10.859375 C 26.957031 11.296875 26.792969 11.707031 26.492188 12.019531 C 26.1875 12.332031 25.785156 12.507812 25.351562 12.511719 Z M 25.308594 7.445312 C 25.304688 7.445312 25.296875 7.445312 25.292969 7.445312 L 25.140625 7.449219 C 25.113281 7.449219 25.089844 7.460938 25.070312 7.480469 C 25.050781 7.5 25.039062 7.527344 25.039062 7.554688 L 25.097656 12.320312 C 25.097656 12.378906 25.148438 12.421875 25.203125 12.421875 L 25.351562 12.421875 C 25.757812 12.417969 26.140625 12.25 26.425781 11.957031 C 26.710938 11.664062 26.863281 11.273438 26.859375 10.863281 L 26.835938 8.972656 C 26.824219 8.125 26.144531 7.445312 25.308594 7.445312 Z M 25.308594 7.445312 " fill-opacity="1" fill-rule="nonzero"/><path fill="#371a45" d="M 26.894531 9.964844 L 26.902344 10.722656 C 26.914062 11.675781 26.160156 12.457031 25.214844 12.46875 C 25.125 12.472656 25.050781 12.398438 25.050781 12.308594 L 25.035156 11.046875 C 25.058594 11.105469 25.117188 11.144531 25.183594 11.144531 L 25.292969 11.140625 C 26.042969 11.132812 26.671875 10.640625 26.894531 9.964844 Z M 26.894531 9.964844 " fill-opacity="0.2" fill-rule="nonzero"/><path fill="#371a45" d="M 25.203125 12.730469 C 24.976562 12.730469 24.792969 12.550781 24.792969 12.324219 L 24.734375 7.558594 C 24.734375 7.445312 24.773438 7.34375 24.851562 7.265625 C 24.925781 7.183594 25.03125 7.140625 25.136719 7.140625 L 25.289062 7.136719 C 25.292969 7.136719 25.304688 7.136719 25.308594 7.136719 C 26.308594 7.136719 27.128906 7.953125 27.140625 8.964844 L 27.164062 10.855469 C 27.171875 11.351562 26.984375 11.816406 26.644531 12.171875 C 26.300781 12.527344 25.84375 12.726562 25.355469 12.730469 L 25.207031 12.734375 C 25.203125 12.730469 25.203125 12.730469 25.203125 12.730469 Z M 25.253906 7.664062 L 25.308594 12.207031 L 25.347656 12.207031 C 25.699219 12.203125 26.027344 12.058594 26.273438 11.804688 C 26.515625 11.554688 26.652344 11.21875 26.644531 10.863281 L 26.621094 8.972656 C 26.613281 8.242188 26.019531 7.652344 25.292969 7.664062 Z M 25.253906 7.664062 " fill-opacity="1" fill-rule="nonzero"/><path fill="#ffffff" d="M 9.535156 7.59375 L 9.683594 7.589844 C 9.765625 7.589844 9.835938 7.65625 9.835938 7.742188 L 9.894531 12.507812 C 9.894531 12.589844 9.828125 12.660156 9.746094 12.660156 L 9.59375 12.660156 C 8.726562 12.671875 8.015625 11.96875 8.003906 11.09375 L 7.980469 9.199219 C 7.96875 8.324219 8.664062 7.605469 9.535156 7.59375 Z M 9.535156 7.59375 " fill-opacity="1" fill-rule="nonzero"/><path fill="#371a45" d="M 9.574219 12.707031 C 8.691406 12.707031 7.96875 11.988281 7.957031 11.09375 L 7.933594 9.199219 C 7.929688 8.765625 8.09375 8.351562 8.394531 8.039062 C 8.695312 7.726562 9.101562 7.550781 9.535156 7.546875 L 9.683594 7.542969 C 9.792969 7.542969 9.878906 7.632812 9.882812 7.742188 L 9.9375 12.507812 C 9.9375 12.558594 9.917969 12.609375 9.882812 12.648438 C 9.847656 12.683594 9.796875 12.707031 9.746094 12.707031 L 9.59375 12.707031 C 9.589844 12.707031 9.582031 12.707031 9.574219 12.707031 Z M 9.535156 7.640625 C 9.125 7.644531 8.746094 7.8125 8.460938 8.105469 C 8.175781 8.398438 8.023438 8.789062 8.027344 9.199219 L 8.050781 11.089844 C 8.058594 11.941406 8.753906 12.625 9.59375 12.613281 L 9.742188 12.613281 C 9.773438 12.613281 9.796875 12.601562 9.816406 12.582031 C 9.835938 12.558594 9.847656 12.535156 9.84375 12.507812 L 9.789062 7.742188 C 9.789062 7.683594 9.742188 7.636719 9.683594 7.636719 Z M 9.535156 7.640625 " fill-opacity="1" fill-rule="nonzero"/><path fill="#371a45" d="M 9.878906 11.179688 L 9.894531 12.492188 C 9.894531 12.582031 9.820312 12.65625 9.730469 12.660156 C 9.238281 12.664062 8.785156 12.457031 8.46875 12.121094 C 8.183594 11.816406 8.007812 11.40625 8.003906 10.953125 L 7.992188 10.273438 C 8.269531 10.867188 8.871094 11.277344 9.5625 11.269531 L 9.734375 11.265625 C 9.796875 11.265625 9.847656 11.230469 9.878906 11.179688 Z M 9.878906 11.179688 " fill-opacity="0.2" fill-rule="nonzero"/><path fill="#371a45" d="M 9.574219 12.921875 C 8.574219 12.921875 7.757812 12.109375 7.746094 11.09375 L 7.722656 9.203125 C 7.714844 8.710938 7.902344 8.242188 8.242188 7.886719 C 8.585938 7.535156 9.042969 7.335938 9.53125 7.332031 L 9.679688 7.328125 C 9.683594 7.328125 9.683594 7.328125 9.6875 7.328125 C 9.910156 7.328125 10.09375 7.511719 10.09375 7.738281 L 10.152344 12.503906 C 10.152344 12.613281 10.109375 12.71875 10.035156 12.796875 C 9.960938 12.875 9.855469 12.921875 9.746094 12.921875 L 9.597656 12.921875 C 9.589844 12.921875 9.582031 12.921875 9.574219 12.921875 Z M 9.539062 7.855469 C 8.8125 7.863281 8.230469 8.464844 8.242188 9.195312 L 8.261719 11.085938 C 8.273438 11.820312 8.871094 12.40625 9.589844 12.398438 L 9.632812 12.398438 L 9.574219 7.855469 Z M 9.539062 7.855469 " fill-opacity="1" fill-rule="nonzero"/><g clip-path="url(#11a1c7efd5)"><path fill="#ffffff" d="M 25.4375 10.03125 C 25.4375 10.5625 25.386719 11.085938 25.285156 11.605469 C 25.183594 12.125 25.03125 12.632812 24.832031 13.121094 C 24.628906 13.609375 24.382812 14.078125 24.09375 14.515625 C 23.800781 14.957031 23.46875 15.367188 23.097656 15.742188 C 22.726562 16.117188 22.324219 16.449219 21.886719 16.746094 C 21.449219 17.039062 20.988281 17.289062 20.503906 17.492188 C 20.019531 17.695312 19.519531 17.847656 19.003906 17.953125 C 18.488281 18.054688 17.96875 18.105469 17.445312 18.105469 C 16.917969 18.105469 16.398438 18.054688 15.886719 17.953125 C 15.371094 17.847656 14.871094 17.695312 14.386719 17.492188 C 13.898438 17.289062 13.4375 17.039062 13.003906 16.746094 C 12.566406 16.449219 12.164062 16.117188 11.792969 15.742188 C 11.421875 15.367188 11.089844 14.957031 10.796875 14.515625 C 10.503906 14.078125 10.257812 13.609375 10.058594 13.121094 C 9.855469 12.632812 9.707031 12.125 9.601562 11.605469 C 9.5 11.085938 9.449219 10.5625 9.449219 10.03125 C 9.449219 9.5 9.5 8.976562 9.601562 8.453125 C 9.707031 7.933594 9.855469 7.429688 10.058594 6.941406 C 10.257812 6.449219 10.503906 5.984375 10.796875 5.542969 C 11.089844 5.101562 11.421875 4.695312 11.792969 4.320312 C 12.164062 3.945312 12.566406 3.609375 13.003906 3.316406 C 13.4375 3.019531 13.898438 2.773438 14.386719 2.570312 C 14.871094 2.367188 15.371094 2.210938 15.886719 2.109375 C 16.398438 2.007812 16.917969 1.953125 17.445312 1.953125 C 17.96875 1.953125 18.488281 2.007812 19.003906 2.109375 C 19.519531 2.210938 20.019531 2.367188 20.503906 2.570312 C 20.988281 2.773438 21.449219 3.019531 21.886719 3.316406 C 22.324219 3.609375 22.726562 3.945312 23.097656 4.320312 C 23.46875 4.695312 23.800781 5.101562 24.09375 5.542969 C 24.382812 5.984375 24.628906 6.449219 24.832031 6.941406 C 25.03125 7.429688 25.183594 7.933594 25.285156 8.453125 C 25.386719 8.976562 25.4375 9.5 25.4375 10.03125 Z M 25.4375 10.03125 " fill-opacity="1" fill-rule="nonzero"/><path fill="#371a45" d="M 17.453125 18.152344 C 17.292969 18.152344 17.132812 18.148438 16.972656 18.140625 C 14.828125 18.011719 12.859375 17.046875 11.433594 15.425781 C 10.007812 13.804688 9.289062 11.71875 9.417969 9.550781 C 9.542969 7.386719 10.496094 5.398438 12.101562 3.957031 C 13.707031 2.515625 15.773438 1.792969 17.917969 1.921875 C 20.0625 2.050781 22.027344 3.011719 23.453125 4.632812 C 24.882812 6.257812 25.597656 8.34375 25.472656 10.507812 L 25.425781 10.503906 L 25.472656 10.507812 C 25.34375 12.675781 24.390625 14.660156 22.785156 16.101562 C 21.300781 17.433594 19.425781 18.152344 17.453125 18.152344 Z M 17.433594 2 C 15.488281 2 13.632812 2.710938 12.164062 4.027344 C 10.574219 5.453125 9.632812 7.417969 9.507812 9.558594 C 9.382812 11.699219 10.089844 13.761719 11.5 15.363281 C 12.910156 16.96875 14.855469 17.917969 16.976562 18.046875 C 19.09375 18.171875 21.136719 17.457031 22.722656 16.03125 C 24.308594 14.609375 25.253906 12.644531 25.378906 10.503906 C 25.503906 8.363281 24.792969 6.300781 23.382812 4.699219 C 21.972656 3.09375 20.03125 2.140625 17.910156 2.015625 C 17.753906 2.003906 17.59375 2 17.433594 2 Z M 17.433594 2 " fill-opacity="1" fill-rule="nonzero"/></g><path fill="#371a45" d="M 25.414062 9.386719 C 25.445312 9.753906 25.445312 10.125 25.425781 10.507812 C 25.164062 14.957031 21.382812 18.355469 16.972656 18.09375 C 12.566406 17.832031 9.203125 14.007812 9.460938 9.558594 C 9.46875 9.429688 9.480469 9.300781 9.492188 9.175781 C 9.800781 13.132812 12.960938 16.351562 16.992188 16.589844 C 21.273438 16.84375 24.964844 13.648438 25.414062 9.386719 Z M 25.414062 9.386719 " fill-opacity="0.2" fill-rule="nonzero"/><g clip-path="url(#132b906db6)"><path fill="#371a45" d="M 17.453125 18.371094 C 17.289062 18.371094 17.125 18.363281 16.957031 18.355469 C 14.757812 18.222656 12.738281 17.234375 11.273438 15.570312 C 9.808594 13.90625 9.074219 11.761719 9.203125 9.539062 C 9.332031 7.316406 10.3125 5.277344 11.960938 3.796875 C 13.609375 2.316406 15.730469 1.574219 17.929688 1.707031 C 20.128906 1.835938 22.148438 2.828125 23.613281 4.492188 C 25.078125 6.15625 25.8125 8.296875 25.683594 10.519531 L 25.425781 10.503906 L 25.683594 10.519531 C 25.554688 12.746094 24.574219 14.785156 22.925781 16.261719 C 21.402344 17.628906 19.476562 18.371094 17.453125 18.371094 Z M 17.433594 2.214844 C 15.539062 2.214844 13.734375 2.90625 12.304688 4.191406 C 10.761719 5.574219 9.84375 7.488281 9.722656 9.570312 C 9.601562 11.65625 10.289062 13.660156 11.664062 15.222656 C 13.035156 16.78125 14.925781 17.707031 16.988281 17.832031 C 19.050781 17.953125 21.039062 17.257812 22.582031 15.871094 C 24.125 14.484375 25.042969 12.574219 25.164062 10.488281 C 25.285156 8.40625 24.597656 6.398438 23.226562 4.839844 C 21.851562 3.28125 19.960938 2.351562 17.898438 2.230469 C 17.742188 2.222656 17.589844 2.214844 17.433594 2.214844 Z M 17.433594 2.214844 " fill-opacity="1" fill-rule="nonzero"/></g><path fill="#371a45" d="M 25.386719 10.710938 C 25.320312 12.289062 24.75 13.734375 23.828125 14.910156 C 23.140625 15.789062 20.394531 17.261719 17.09375 17.144531 C 14.03125 17.039062 11.316406 15.265625 10.703125 14.328125 C 9.890625 13.078125 9.445312 11.589844 9.515625 10.007812 C 9.695312 5.832031 13.324219 4.257812 17.707031 4.449219 C 22.089844 4.644531 25.566406 6.53125 25.386719 10.710938 Z M 25.386719 10.710938 " fill-opacity="1" fill-rule="nonzero"/><g mask="url(#6c35ebd204)"><g transform="matrix(1, 0, 0, 1, 21, 8)"><g clip-path="url(#533b529e63)"><g clip-path="url(#ff208559fc)"><path fill="#ffffff" d="M 2.144531 0.75 C 2.277344 0.777344 2.394531 0.84375 2.503906 0.941406 C 2.609375 1.039062 2.695312 1.167969 2.757812 1.316406 C 2.824219 1.46875 2.863281 1.636719 2.875 1.820312 C 2.886719 2.003906 2.871094 2.1875 2.832031 2.371094 C 2.789062 2.554688 2.722656 2.726562 2.636719 2.886719 C 2.546875 3.046875 2.441406 3.179688 2.316406 3.289062 C 2.195312 3.398438 2.0625 3.472656 1.925781 3.515625 C 1.785156 3.558594 1.652344 3.566406 1.519531 3.535156 C 1.386719 3.503906 1.265625 3.441406 1.160156 3.339844 C 1.054688 3.242188 0.96875 3.117188 0.902344 2.964844 C 0.839844 2.8125 0.800781 2.644531 0.789062 2.464844 C 0.777344 2.28125 0.789062 2.097656 0.832031 1.914062 C 0.875 1.726562 0.9375 1.554688 1.027344 1.398438 C 1.117188 1.238281 1.222656 1.105469 1.347656 0.996094 C 1.46875 0.886719 1.597656 0.808594 1.738281 0.765625 C 1.875 0.722656 2.011719 0.71875 2.144531 0.75 Z M 2.144531 0.75 " fill-opacity="1" fill-rule="nonzero"/></g></g></g></g><g mask="url(#fb31a0afe1)"><g transform="matrix(1, 0, 0, 1, 20, 11)"><g clip-path="url(#4d168318e5)"><g clip-path="url(#3526595449)"><path fill="#ffffff" d="M 1.683594 1.300781 C 1.828125 1.355469 1.929688 1.460938 1.984375 1.621094 C 2.042969 1.777344 2.039062 1.941406 1.976562 2.113281 C 1.914062 2.28125 1.808594 2.40625 1.660156 2.488281 C 1.515625 2.566406 1.367188 2.582031 1.226562 2.527344 C 1.082031 2.472656 0.980469 2.363281 0.925781 2.207031 C 0.867188 2.046875 0.871094 1.882812 0.933594 1.714844 C 0.996094 1.542969 1.101562 1.417969 1.25 1.339844 C 1.394531 1.257812 1.539062 1.246094 1.683594 1.300781 Z M 1.683594 1.300781 " fill-opacity="1" fill-rule="nonzero"/></g></g></g></g><path fill="#111a28" d="M 24.011719 6.746094 C 24.941406 7.722656 25.460938 9.03125 25.386719 10.710938 C 25.320312 12.289062 24.746094 13.734375 23.828125 14.90625 C 23.136719 15.789062 20.394531 17.261719 17.089844 17.144531 C 15.925781 17.105469 14.808594 16.824219 13.839844 16.4375 C 17.90625 16.492188 21.246094 14.683594 22.101562 13.589844 C 23.269531 12.097656 23.996094 10.265625 24.082031 8.261719 C 24.105469 7.726562 24.078125 7.222656 24.011719 6.746094 Z M 24.011719 6.746094 " fill-opacity="0.35" fill-rule="nonzero"/><path fill="#371a45" d="M 24.863281 7.277344 C 24.800781 7.277344 24.738281 7.257812 24.6875 7.210938 L 24.664062 7.1875 L 24.644531 7.160156 C 23.390625 5.207031 20.855469 4.011719 17.6875 3.871094 C 14.5 3.730469 11.871094 4.734375 10.472656 6.628906 L 10.457031 6.648438 C 10.363281 6.753906 10.195312 6.761719 10.089844 6.664062 C 9.988281 6.570312 9.976562 6.414062 10.0625 6.308594 C 11.566406 4.277344 14.351562 3.199219 17.710938 3.347656 C 21.046875 3.492188 23.730469 4.777344 25.078125 6.867188 C 25.144531 6.964844 25.136719 7.101562 25.054688 7.191406 C 25.003906 7.25 24.933594 7.277344 24.863281 7.277344 Z M 24.863281 7.277344 " fill-opacity="1" fill-rule="nonzero"/><path fill="#ffffff" d="M 11.1875 12.683594 C 11.1875 12.683594 10.085938 8.503906 12.355469 6.960938 C 14.625 5.414062 17.789062 5.5625 17.707031 5.761719 C 17.707031 5.761719 14.164062 6.464844 12.675781 9.199219 C 11.523438 11.3125 11.1875 12.683594 11.1875 12.683594 Z M 11.1875 12.683594 " fill-opacity="0.5" fill-rule="nonzero"/><g clip-path="url(#84ee887bfc)"><path fill="#ffffff" d="M 29.71875 27.242188 C 29.445312 28.273438 28.929688 29.300781 28.371094 29.890625 C 28.015625 30.261719 27.480469 30.394531 26.996094 30.230469 L 24.015625 29.234375 L 20.609375 28.878906 C 17.964844 29.34375 15.378906 28.96875 15.378906 28.96875 L 11.761719 29.117188 L 8.945312 30.234375 C 7.023438 30.75 6.148438 26.679688 5.929688 25.816406 C 5.929688 25.8125 5.929688 25.8125 5.929688 25.8125 C 5.714844 24.949219 6.277344 24.636719 6.277344 24.636719 C 8.691406 23.519531 9.09375 25.628906 9.09375 25.628906 C 9.796875 25.058594 10.585938 24.738281 11.1875 24.5625 C 11.195312 24.5625 11.207031 24.558594 11.21875 24.554688 C 11.464844 24.484375 11.675781 24.4375 11.835938 24.40625 C 12.023438 24.371094 12.132812 24.359375 12.132812 24.359375 L 12.109375 22.542969 C 12.09375 22.546875 12.078125 22.546875 12.0625 22.546875 C 11.753906 22.574219 11.472656 22.582031 11.21875 22.566406 C 9.546875 22.480469 9.0625 21.589844 8.992188 20.734375 C 8.980469 20.617188 8.980469 20.5 8.984375 20.390625 C 9.003906 19.6875 9.332031 19.035156 9.859375 18.582031 L 11.21875 17.410156 L 12.179688 16.582031 C 12.585938 16.308594 12.992188 16.132812 13.367188 16.019531 C 14.441406 15.703125 15.285156 15.902344 15.285156 15.902344 L 15.53125 15.746094 C 15.714844 15.628906 15.929688 15.570312 16.144531 15.570312 L 19.941406 15.570312 C 20.171875 15.570312 20.363281 15.761719 20.363281 15.996094 L 20.363281 16.0625 C 20.472656 16.042969 20.578125 16.03125 20.679688 16.019531 C 20.859375 16.007812 21.027344 16.007812 21.179688 16.019531 C 21.644531 16.058594 21.972656 16.179688 21.972656 16.179688 C 22.695312 16.585938 23.378906 17.152344 23.964844 17.722656 C 24.875 18.605469 25.558594 19.507812 25.828125 19.875 C 25.917969 20 25.984375 20.140625 26.023438 20.289062 C 26.0625 20.441406 26.085938 20.59375 26.089844 20.742188 C 26.125 21.808594 25.292969 22.628906 24.195312 22.691406 C 24.117188 22.695312 24.042969 22.699219 23.964844 22.695312 C 23.714844 22.6875 23.453125 22.636719 23.1875 22.546875 L 23.183594 23.121094 L 23.171875 24.179688 C 23.4375 24.269531 23.707031 24.367188 23.964844 24.460938 C 25.390625 24.976562 26.585938 25.460938 26.585938 25.460938 C 27.296875 23.933594 28.660156 24.269531 29.324219 24.554688 C 29.597656 24.667969 29.800781 24.910156 29.863281 25.199219 C 29.984375 25.78125 29.914062 26.511719 29.71875 27.242188 Z M 29.71875 27.242188 " fill-opacity="1" fill-rule="nonzero"/></g><path fill="#3087ef" d="M 19.167969 16.710938 L 18.339844 17.214844 L 18.402344 19.726562 L 19.167969 19.316406 Z M 19.167969 16.710938 " fill-opacity="1" fill-rule="nonzero"/><path fill="#edda32" d="M 18.472656 19.820312 L 19.601562 19.058594 L 19.949219 19.984375 L 18.136719 21.160156 L 18.136719 21.007812 Z M 18.472656 19.820312 " fill-opacity="1" fill-rule="nonzero"/><path fill="#edda32" d="M 20.207031 15.761719 L 19.75 16.28125 L 19.808594 17.324219 L 20.300781 16.984375 Z M 20.207031 15.761719 " fill-opacity="1" fill-rule="nonzero"/><path fill="#f22f2f" d="M 19.664062 16.257812 L 19.167969 16.621094 L 19.214844 17.785156 L 19.75 17.359375 Z M 19.664062 16.257812 " fill-opacity="1" fill-rule="nonzero"/><path fill="#f22f2f" d="M 15.566406 17.167969 L 17.265625 17.167969 L 17.265625 19.726562 L 15.566406 19.726562 Z M 15.566406 17.167969 " fill-opacity="1" fill-rule="nonzero"/><path fill="#32ed32" d="M 16.75 16.019531 L 16.234375 16.546875 L 17.761719 16.546875 L 18.257812 16.019531 Z M 16.75 16.019531 " fill-opacity="1" fill-rule="nonzero"/><path fill="#32ed32" d="M 16.199219 16.585938 L 15.710938 17.167969 L 14.414062 17.105469 L 14.253906 16.875 L 14.589844 16.585938 Z M 16.199219 16.585938 " fill-opacity="1" fill-rule="nonzero"/><path fill="#f22f2f" d="M 15.105469 15.957031 L 14.695312 16.5 L 16.285156 16.5 L 16.628906 16.019531 Z M 15.105469 15.957031 " fill-opacity="1" fill-rule="nonzero"/><path fill="#f22f2f" d="M 15.875 15.570312 L 15.386719 15.957031 L 16.765625 15.957031 L 16.984375 15.636719 Z M 15.875 15.570312 " fill-opacity="1" fill-rule="nonzero"/><path fill="#32ed32" d="M 18.367188 16.054688 L 17.957031 16.546875 L 19.074219 16.664062 L 19.664062 16.132812 L 19.507812 15.957031 Z M 18.367188 16.054688 " fill-opacity="1" fill-rule="nonzero"/><path fill="#3087ef" d="M 15.566406 19.726562 L 17.265625 19.726562 L 17.265625 21.226562 L 15.566406 21.226562 Z M 15.566406 19.726562 " fill-opacity="1" fill-rule="nonzero"/><path fill="#ffffff" d="M 17.265625 18.546875 L 18.257812 18.546875 L 18.257812 19.820312 L 17.265625 19.820312 Z M 17.265625 18.546875 " fill-opacity="1" fill-rule="nonzero"/><path fill="#32ed32" d="M 17.265625 17.167969 L 18.257812 17.167969 L 18.257812 18.609375 L 17.265625 18.609375 Z M 17.265625 17.167969 " fill-opacity="1" fill-rule="nonzero"/><path fill="#32ed32" d="M 17.917969 21.085938 L 17.230469 21.085938 L 17.230469 19.757812 L 18.257812 19.757812 L 18.257812 20.746094 C 18.257812 20.933594 18.105469 21.085938 17.917969 21.085938 Z M 17.917969 21.085938 " fill-opacity="1" fill-rule="nonzero"/><path fill="#3087ef" d="M 14.34375 17.214844 L 15.085938 18.507812 L 15.566406 18.507812 L 15.566406 17.214844 Z M 14.34375 17.214844 " fill-opacity="1" fill-rule="nonzero"/><path fill="#edda32" d="M 14.304688 19.820312 L 15.566406 19.820312 L 15.566406 21.226562 L 14.476562 21.226562 L 14.347656 20.855469 Z M 14.304688 19.820312 " fill-opacity="1" fill-rule="nonzero"/><g clip-path="url(#4c4f6158d0)"><path fill="#371a45" d="M 27.414062 30.464844 C 27.257812 30.464844 27.097656 30.4375 26.945312 30.386719 L 23.980469 29.398438 L 20.613281 29.042969 C 18.089844 29.484375 15.589844 29.164062 15.367188 29.132812 L 11.796875 29.28125 L 9.003906 30.390625 C 9 30.390625 8.992188 30.394531 8.988281 30.394531 C 8.605469 30.496094 8.234375 30.445312 7.890625 30.238281 C 6.664062 29.5 6.046875 26.976562 5.816406 26.027344 C 5.800781 25.960938 5.785156 25.902344 5.773438 25.851562 C 5.527344 24.878906 6.171875 24.507812 6.199219 24.492188 C 6.199219 24.492188 6.203125 24.488281 6.207031 24.488281 C 7.0625 24.09375 7.777344 24.039062 8.335938 24.328125 C 8.835938 24.589844 9.078125 25.0625 9.179688 25.351562 C 10.296875 24.53125 11.542969 24.28125 11.96875 24.21875 L 11.945312 22.722656 C 10.796875 22.804688 9.949219 22.589844 9.421875 22.089844 C 9 21.6875 8.796875 21.113281 8.816406 20.382812 C 8.839844 19.648438 9.179688 18.945312 9.75 18.453125 L 12.074219 16.457031 C 12.078125 16.453125 12.082031 16.449219 12.089844 16.445312 C 13.523438 15.484375 14.925781 15.667969 15.253906 15.726562 L 15.445312 15.605469 C 15.65625 15.472656 15.898438 15.402344 16.144531 15.402344 L 19.941406 15.402344 C 20.222656 15.402344 20.457031 15.605469 20.515625 15.871094 C 21.328125 15.765625 21.996094 16.011719 22.027344 16.023438 C 22.035156 16.027344 22.042969 16.03125 22.050781 16.035156 C 23.921875 17.089844 25.515625 19.167969 25.957031 19.777344 C 26.066406 19.925781 26.140625 20.085938 26.183594 20.25 C 26.378906 21.019531 26.171875 21.757812 25.621094 22.269531 C 25.046875 22.808594 24.191406 22.988281 23.347656 22.765625 L 23.332031 24.0625 C 24.734375 24.550781 26.078125 25.082031 26.503906 25.253906 C 27.308594 23.726562 28.777344 24.144531 29.386719 24.402344 C 29.710938 24.539062 29.949219 24.824219 30.023438 25.164062 C 30.335938 26.648438 29.457031 28.984375 28.488281 30.003906 C 28.203125 30.304688 27.8125 30.464844 27.414062 30.464844 Z M 20.609375 28.710938 C 20.613281 28.710938 20.621094 28.710938 20.625 28.714844 L 24.03125 29.070312 C 24.042969 29.070312 24.054688 29.074219 24.066406 29.078125 L 27.046875 30.074219 C 27.472656 30.214844 27.945312 30.097656 28.253906 29.777344 C 29.148438 28.835938 29.992188 26.601562 29.703125 25.234375 C 29.652344 25 29.488281 24.800781 29.261719 24.707031 C 28.589844 24.421875 27.375 24.152344 26.734375 25.535156 C 26.695312 25.613281 26.605469 25.648438 26.523438 25.617188 C 26.507812 25.609375 24.835938 24.933594 23.117188 24.335938 C 23.050781 24.3125 23.003906 24.25 23.003906 24.175781 L 23.023438 22.542969 C 23.023438 22.492188 23.050781 22.441406 23.09375 22.410156 C 23.136719 22.382812 23.191406 22.371094 23.242188 22.390625 C 24.035156 22.667969 24.863281 22.527344 25.398438 22.03125 C 25.859375 21.601562 26.03125 20.980469 25.863281 20.332031 C 25.832031 20.207031 25.777344 20.089844 25.695312 19.976562 C 25.261719 19.378906 23.710938 17.355469 21.902344 16.332031 C 21.8125 16.300781 21.140625 16.085938 20.394531 16.226562 C 20.347656 16.238281 20.296875 16.222656 20.257812 16.191406 C 20.222656 16.160156 20.199219 16.113281 20.199219 16.066406 L 20.199219 15.996094 C 20.199219 15.851562 20.085938 15.734375 19.941406 15.734375 L 16.144531 15.734375 C 15.960938 15.734375 15.777344 15.789062 15.621094 15.886719 L 15.375 16.042969 C 15.335938 16.066406 15.292969 16.074219 15.25 16.066406 C 15.234375 16.0625 13.757812 15.730469 12.277344 16.714844 L 9.964844 18.707031 C 9.464844 19.136719 9.167969 19.75 9.144531 20.394531 C 9.125 21.023438 9.296875 21.515625 9.648438 21.851562 C 10.128906 22.308594 10.949219 22.488281 12.09375 22.382812 C 12.136719 22.378906 12.183594 22.394531 12.21875 22.425781 C 12.25 22.453125 12.269531 22.5 12.269531 22.542969 L 12.296875 24.359375 C 12.296875 24.445312 12.234375 24.519531 12.148438 24.527344 C 12.132812 24.527344 10.5 24.703125 9.191406 25.757812 C 9.148438 25.796875 9.089844 25.804688 9.035156 25.785156 C 8.980469 25.765625 8.941406 25.71875 8.929688 25.660156 C 8.929688 25.652344 8.78125 24.933594 8.183594 24.621094 C 7.722656 24.382812 7.105469 24.4375 6.351562 24.785156 C 6.308594 24.8125 5.914062 25.078125 6.089844 25.773438 C 6.101562 25.820312 6.117188 25.878906 6.132812 25.949219 C 6.335938 26.773438 6.949219 29.285156 8.058594 29.953125 C 8.328125 30.113281 8.601562 30.152344 8.898438 30.078125 L 11.703125 28.960938 C 11.722656 28.957031 11.738281 28.953125 11.757812 28.949219 L 15.371094 28.804688 C 15.382812 28.804688 15.390625 28.804688 15.402344 28.804688 C 15.429688 28.808594 17.996094 29.171875 20.582031 28.714844 C 20.589844 28.714844 20.597656 28.710938 20.609375 28.710938 Z M 20.609375 28.710938 " fill-opacity="1" fill-rule="nonzero"/></g><path fill="#371a45" d="M 17.847656 21.351562 L 14.839844 21.351562 C 14.457031 21.351562 14.140625 21.035156 14.140625 20.644531 L 14.140625 19.902344 C 14.140625 19.847656 14.167969 19.796875 14.210938 19.769531 C 14.609375 19.484375 14.828125 19.144531 14.851562 18.761719 C 14.910156 17.902344 14.019531 17.058594 14.011719 17.050781 C 13.976562 17.019531 13.957031 16.976562 13.957031 16.929688 C 13.960938 16.882812 13.980469 16.835938 14.015625 16.804688 L 15.175781 15.777344 C 15.246094 15.71875 15.347656 15.726562 15.40625 15.792969 C 15.46875 15.863281 15.460938 15.96875 15.390625 16.027344 L 14.359375 16.941406 C 14.632812 17.230469 15.230469 17.976562 15.179688 18.785156 C 15.148438 19.246094 14.90625 19.652344 14.46875 19.988281 L 14.46875 20.644531 C 14.46875 20.851562 14.632812 21.023438 14.839844 21.023438 L 17.847656 21.023438 C 18.128906 21.023438 18.40625 20.929688 18.632812 20.761719 L 19.792969 19.894531 C 19.570312 19.453125 18.988281 18.039062 20.238281 17.105469 L 20.199219 16.070312 C 20.195312 15.980469 20.265625 15.902344 20.355469 15.898438 C 20.445312 15.894531 20.523438 15.964844 20.523438 16.058594 L 20.570312 17.179688 C 20.574219 17.238281 20.546875 17.292969 20.5 17.324219 C 19.160156 18.253906 20.105469 19.789062 20.144531 19.851562 C 20.191406 19.925781 20.175781 20.023438 20.105469 20.074219 L 18.828125 21.027344 C 18.546875 21.238281 18.199219 21.351562 17.847656 21.351562 Z M 17.847656 21.351562 " fill-opacity="1" fill-rule="nonzero"/><path fill="#371a45" d="M 17.566406 21.324219 L 17.554688 21.324219 C 17.480469 21.324219 17.417969 21.265625 17.417969 21.1875 C 17.417969 21.113281 17.480469 21.050781 17.554688 21.050781 L 17.566406 21.050781 C 17.917969 21.050781 18.203125 20.761719 18.203125 20.40625 L 18.203125 17.5625 C 18.203125 17.421875 18.085938 17.304688 17.945312 17.304688 L 14.34375 17.304688 C 14.269531 17.304688 14.207031 17.242188 14.207031 17.167969 C 14.207031 17.089844 14.269531 17.027344 14.34375 17.027344 L 17.945312 17.027344 C 18.238281 17.027344 18.472656 17.269531 18.472656 17.5625 L 18.472656 20.40625 C 18.472656 20.914062 18.066406 21.324219 17.566406 21.324219 Z M 17.566406 21.324219 " fill-opacity="1" fill-rule="nonzero"/><path fill="#371a45" d="M 18.257812 17.433594 C 18.222656 17.433594 18.191406 17.417969 18.171875 17.390625 C 18.132812 17.34375 18.140625 17.273438 18.1875 17.238281 L 20.105469 15.691406 C 20.152344 15.652344 20.21875 15.660156 20.257812 15.707031 C 20.292969 15.753906 20.289062 15.824219 20.238281 15.863281 L 18.324219 17.410156 C 18.304688 17.425781 18.28125 17.433594 18.257812 17.433594 Z M 18.257812 17.433594 " fill-opacity="1" fill-rule="nonzero"/><path fill="#371a45" d="M 18.339844 18.65625 L 15.011719 18.65625 C 14.953125 18.65625 14.902344 18.605469 14.902344 18.546875 C 14.902344 18.484375 14.953125 18.4375 15.011719 18.4375 L 18.300781 18.4375 L 20.234375 16.9375 C 20.28125 16.898438 20.347656 16.90625 20.386719 16.957031 C 20.421875 17.003906 20.414062 17.074219 20.367188 17.109375 L 18.40625 18.632812 C 18.382812 18.648438 18.363281 18.65625 18.339844 18.65625 Z M 18.339844 18.65625 " fill-opacity="1" fill-rule="nonzero"/><path fill="#371a45" d="M 18.339844 19.929688 L 14.417969 19.929688 C 14.355469 19.929688 14.308594 19.878906 14.308594 19.820312 C 14.308594 19.757812 14.355469 19.710938 14.417969 19.710938 L 18.308594 19.710938 L 19.605469 18.925781 C 19.65625 18.894531 19.726562 18.910156 19.753906 18.964844 C 19.785156 19.015625 19.769531 19.085938 19.71875 19.113281 L 18.394531 19.914062 C 18.375 19.925781 18.359375 19.929688 18.339844 19.929688 Z M 18.339844 19.929688 " fill-opacity="1" fill-rule="nonzero"/><path fill="#371a45" d="M 18.78125 20.96875 C 18.746094 20.96875 18.714844 20.953125 18.691406 20.921875 C 18.65625 20.875 18.667969 20.804688 18.714844 20.769531 L 19.058594 20.511719 L 19.058594 16.695312 L 14.515625 16.695312 C 14.453125 16.695312 14.40625 16.648438 14.40625 16.585938 C 14.40625 16.523438 14.453125 16.476562 14.515625 16.476562 L 19.167969 16.476562 C 19.230469 16.476562 19.277344 16.523438 19.277344 16.585938 L 19.277344 20.566406 C 19.277344 20.601562 19.261719 20.636719 19.234375 20.65625 L 18.847656 20.945312 C 18.828125 20.960938 18.804688 20.96875 18.78125 20.96875 Z M 18.78125 20.96875 " fill-opacity="1" fill-rule="nonzero"/><path fill="#371a45" d="M 19.75 17.433594 C 19.6875 17.433594 19.640625 17.382812 19.640625 17.324219 L 19.640625 16.28125 C 19.640625 16.199219 19.574219 16.132812 19.492188 16.132812 L 15.152344 16.132812 C 15.09375 16.132812 15.042969 16.082031 15.042969 16.023438 C 15.042969 15.960938 15.09375 15.914062 15.152344 15.914062 L 19.492188 15.914062 C 19.695312 15.914062 19.859375 16.078125 19.859375 16.28125 L 19.859375 17.324219 C 19.859375 17.382812 19.808594 17.433594 19.75 17.433594 Z M 19.75 17.433594 " fill-opacity="1" fill-rule="nonzero"/><path fill="#371a45" d="M 15.628906 21.296875 C 15.570312 21.296875 15.523438 21.25 15.523438 21.1875 L 15.523438 17.167969 C 15.523438 17.140625 15.535156 17.113281 15.554688 17.089844 L 17.117188 15.492188 C 17.15625 15.449219 17.226562 15.449219 17.269531 15.492188 C 17.3125 15.535156 17.3125 15.605469 17.269531 15.648438 L 15.742188 17.210938 L 15.742188 21.1875 C 15.742188 21.25 15.691406 21.296875 15.628906 21.296875 Z M 15.628906 21.296875 " fill-opacity="1" fill-rule="nonzero"/><path fill="#371a45" d="M 17.191406 21.296875 C 17.132812 21.296875 17.085938 21.25 17.085938 21.1875 L 17.085938 17.167969 C 17.085938 17.136719 17.097656 17.109375 17.117188 17.089844 L 18.808594 15.488281 C 18.851562 15.445312 18.921875 15.449219 18.960938 15.492188 C 19.003906 15.539062 19 15.609375 18.957031 15.648438 L 17.300781 17.214844 L 17.300781 21.191406 C 17.300781 21.25 17.253906 21.296875 17.191406 21.296875 Z M 17.191406 21.296875 " fill-opacity="1" fill-rule="nonzero"/><path fill="#371a45" d="M 12.105469 22.710938 C 12.015625 22.710938 11.945312 22.636719 11.945312 22.546875 L 11.945312 20.453125 C 11.945312 20.414062 11.960938 20.371094 11.988281 20.339844 L 12.804688 19.460938 C 12.867188 19.394531 12.96875 19.390625 13.035156 19.449219 C 13.753906 20.097656 14.1875 19.785156 14.207031 19.773438 C 14.277344 19.71875 14.382812 19.734375 14.433594 19.804688 C 14.488281 19.875 14.476562 19.976562 14.40625 20.035156 C 14.382812 20.054688 13.808594 20.496094 12.9375 19.800781 L 12.269531 20.519531 L 12.269531 22.546875 C 12.269531 22.636719 12.199219 22.710938 12.105469 22.710938 Z M 12.105469 22.710938 " fill-opacity="1" fill-rule="nonzero"/><path fill="#371a45" d="M 12.214844 20.582031 L 11.019531 21.425781 C 10.996094 21.445312 10.960938 21.40625 10.984375 21.382812 L 12 20.328125 C 12.171875 20.164062 12.402344 20.433594 12.214844 20.582031 Z M 12.214844 20.582031 " fill-opacity="1" fill-rule="nonzero"/><path fill="#371a45" d="M 11.71875 20.925781 C 11.703125 20.925781 11.691406 20.925781 11.675781 20.921875 C 10.042969 20.40625 9.898438 18.765625 9.886719 18.441406 C 9.882812 18.367188 9.945312 18.300781 10.019531 18.300781 C 10.09375 18.296875 10.15625 18.355469 10.160156 18.433594 C 10.171875 18.722656 10.296875 20.199219 11.757812 20.660156 C 11.828125 20.683594 11.871094 20.757812 11.847656 20.832031 C 11.828125 20.890625 11.773438 20.925781 11.71875 20.925781 Z M 11.71875 20.925781 " fill-opacity="1" fill-rule="nonzero"/><path fill="#371a45" d="M 12.785156 19.660156 C 12.75 19.5625 12.664062 19.40625 12.617188 19.3125 L 12.441406 18.957031 C 12.425781 18.929688 12.460938 18.902344 12.484375 18.921875 C 12.617188 19.050781 12.859375 19.277344 12.988281 19.40625 C 13 19.417969 13.03125 19.449219 13.042969 19.460938 C 13.121094 19.539062 13.136719 19.65625 13.046875 19.734375 C 12.960938 19.808594 12.820312 19.769531 12.785156 19.660156 Z M 12.785156 19.660156 " fill-opacity="1" fill-rule="nonzero"/><path fill="#371a45" d="M 14.027344 17.0625 L 13.589844 16.570312 C 13.570312 16.546875 13.597656 16.511719 13.621094 16.527344 L 14.21875 16.796875 C 14.457031 16.925781 14.21875 17.253906 14.027344 17.0625 Z M 14.027344 17.0625 " fill-opacity="1" fill-rule="nonzero"/><path fill="#371a45" d="M 23.1875 22.710938 C 23.097656 22.710938 23.023438 22.636719 23.023438 22.546875 L 23.023438 21.308594 L 21.605469 20.03125 C 20.90625 20.496094 19.984375 20.109375 19.945312 20.09375 C 19.863281 20.054688 19.824219 19.960938 19.859375 19.875 C 19.894531 19.792969 19.988281 19.75 20.070312 19.789062 C 20.082031 19.792969 20.957031 20.15625 21.511719 19.691406 C 21.574219 19.640625 21.664062 19.640625 21.726562 19.695312 L 23.296875 21.109375 C 23.332031 21.140625 23.351562 21.1875 23.351562 21.234375 L 23.351562 22.546875 C 23.351562 22.636719 23.277344 22.710938 23.1875 22.710938 Z M 23.1875 22.710938 " fill-opacity="1" fill-rule="nonzero"/><path fill="#371a45" d="M 23.292969 21.109375 L 23.640625 21.589844 C 23.660156 21.613281 23.632812 21.644531 23.605469 21.632812 L 23.082031 21.359375 C 23 21.316406 22.96875 21.214844 23.007812 21.132812 C 23.0625 21.019531 23.226562 21.007812 23.292969 21.109375 Z M 23.292969 21.109375 " fill-opacity="1" fill-rule="nonzero"/><path fill="#371a45" d="M 21.492188 19.714844 C 21.691406 19.523438 21.914062 19.300781 21.980469 19.019531 C 21.980469 19.003906 21.996094 18.992188 22.011719 18.996094 C 22.023438 18.996094 22.03125 19.007812 22.035156 19.019531 C 22.042969 19.101562 22.035156 19.183594 22.019531 19.261719 C 21.96875 19.5 21.863281 19.714844 21.742188 19.925781 C 21.59375 20.136719 21.308594 19.890625 21.492188 19.714844 Z M 21.492188 19.714844 " fill-opacity="1" fill-rule="nonzero"/><path fill="#371a45" d="M 22.992188 21.199219 C 22.941406 21.199219 22.886719 21.164062 22.867188 21.109375 C 22.839844 21.039062 22.875 20.960938 22.945312 20.933594 C 24.324219 20.378906 24.796875 18.730469 24.800781 18.714844 C 24.824219 18.640625 24.898438 18.597656 24.96875 18.621094 C 25.042969 18.640625 25.085938 18.714844 25.066406 18.789062 C 25.042969 18.863281 24.550781 20.582031 23.042969 21.1875 C 23.027344 21.195312 23.011719 21.199219 22.992188 21.199219 Z M 22.992188 21.199219 " fill-opacity="1" fill-rule="nonzero"/><path fill="#371a45" d="M 12.277344 24.28125 L 12.484375 24.9375 C 12.496094 24.964844 12.457031 24.988281 12.4375 24.964844 L 11.992188 24.445312 C 11.828125 24.230469 12.179688 24.03125 12.277344 24.28125 Z M 12.277344 24.28125 " fill-opacity="1" fill-rule="nonzero"/><path fill="#371a45" d="M 23.316406 24.25 L 22.832031 24.960938 C 22.8125 24.988281 22.769531 24.964844 22.78125 24.9375 L 23.019531 24.105469 C 23.109375 23.867188 23.449219 24.03125 23.316406 24.25 Z M 23.316406 24.25 " fill-opacity="1" fill-rule="nonzero"/><path fill="#371a45" d="M 9.253906 25.601562 L 9.273438 26.601562 C 9.273438 26.632812 9.226562 26.640625 9.21875 26.609375 L 8.929688 25.652344 C 8.871094 25.410156 9.234375 25.351562 9.253906 25.601562 Z M 9.253906 25.601562 " fill-opacity="1" fill-rule="nonzero"/><path fill="#371a45" d="M 26.742188 25.511719 L 26.410156 26.160156 C 26.398438 26.1875 26.355469 26.175781 26.359375 26.144531 L 26.429688 25.417969 C 26.46875 25.15625 26.847656 25.265625 26.742188 25.511719 Z M 26.742188 25.511719 " fill-opacity="1" fill-rule="nonzero"/><path fill="#371a45" d="M 24.566406 29.558594 C 24.507812 29.558594 24.453125 29.519531 24.4375 29.460938 C 23.933594 27.886719 24.246094 26.746094 24.597656 26.070312 C 24.980469 25.332031 25.484375 24.972656 25.503906 24.957031 C 25.566406 24.914062 25.652344 24.929688 25.691406 24.988281 C 25.738281 25.050781 25.722656 25.136719 25.660156 25.179688 C 25.652344 25.1875 25.183594 25.527344 24.832031 26.210938 C 24.363281 27.125 24.316406 28.191406 24.695312 29.378906 C 24.71875 29.449219 24.679688 29.527344 24.605469 29.550781 C 24.59375 29.554688 24.578125 29.558594 24.566406 29.558594 Z M 24.566406 29.558594 " fill-opacity="1" fill-rule="nonzero"/><path fill="#371a45" d="M 11.761719 29.253906 C 11.746094 29.253906 11.730469 29.25 11.71875 29.246094 C 11.644531 29.21875 11.609375 29.140625 11.632812 29.070312 C 11.972656 28.082031 11.820312 27.109375 11.183594 26.183594 C 10.699219 25.480469 10.105469 25.066406 10.101562 25.0625 C 10.039062 25.019531 10.019531 24.933594 10.0625 24.871094 C 10.105469 24.808594 10.191406 24.792969 10.253906 24.835938 C 10.277344 24.855469 10.890625 25.277344 11.402344 26.019531 C 12.085938 27.011719 12.253906 28.097656 11.890625 29.160156 C 11.871094 29.21875 11.820312 29.253906 11.761719 29.253906 Z M 11.761719 29.253906 " fill-opacity="1" fill-rule="nonzero"/><g clip-path="url(#b459ba0a36)"><path fill="#371a45" d="M 8.230469 30.34375 C 8.21875 30.34375 8.207031 30.34375 8.195312 30.339844 C 8.121094 30.335938 8.0625 30.273438 8.066406 30.195312 C 8.070312 30.121094 8.136719 30.0625 8.210938 30.066406 C 8.320312 30.074219 8.375 30.035156 8.410156 29.925781 C 8.535156 29.550781 8.292969 28.589844 7.765625 27.359375 C 7.292969 26.261719 6.769531 25.363281 6.59375 25.246094 C 6.476562 25.167969 6.367188 25.140625 6.273438 25.167969 C 6.101562 25.214844 6.007812 25.40625 6.003906 25.410156 C 5.972656 25.476562 5.890625 25.503906 5.824219 25.472656 C 5.753906 25.4375 5.726562 25.355469 5.761719 25.289062 C 5.765625 25.277344 5.910156 24.984375 6.199219 24.902344 C 6.375 24.855469 6.558594 24.894531 6.746094 25.019531 C 7.03125 25.207031 7.613281 26.308594 8.015625 27.246094 C 8.347656 28.019531 8.871094 29.402344 8.671875 30.011719 C 8.601562 30.226562 8.445312 30.34375 8.230469 30.34375 Z M 8.230469 30.34375 " fill-opacity="1" fill-rule="nonzero"/></g><g clip-path="url(#390f69a9fe)"><path fill="#371a45" d="M 27.804688 30.292969 C 27.6875 30.292969 27.582031 30.261719 27.492188 30.195312 C 27.203125 29.984375 27.113281 29.4375 27.230469 28.570312 C 27.34375 27.726562 27.988281 25.847656 28.609375 25.074219 C 28.84375 24.78125 29.09375 24.632812 29.351562 24.628906 C 29.351562 24.628906 29.355469 24.628906 29.359375 24.628906 C 29.667969 24.628906 29.863281 24.851562 29.871094 24.859375 C 29.921875 24.917969 29.914062 25.003906 29.855469 25.054688 C 29.800781 25.105469 29.714844 25.097656 29.664062 25.039062 C 29.664062 25.035156 29.535156 24.898438 29.351562 24.902344 C 29.179688 24.90625 29.003906 25.023438 28.820312 25.25 C 28.246094 25.960938 27.609375 27.792969 27.5 28.605469 C 27.40625 29.332031 27.460938 29.832031 27.652344 29.972656 C 27.753906 30.046875 27.914062 30.03125 28.128906 29.925781 C 28.199219 29.894531 28.28125 29.921875 28.3125 29.988281 C 28.34375 30.058594 28.316406 30.140625 28.25 30.175781 C 28.082031 30.253906 27.9375 30.292969 27.804688 30.292969 Z M 27.804688 30.292969 " fill-opacity="1" fill-rule="nonzero"/></g><path fill="#371a45" d="M 16.894531 24.972656 C 16.203125 24.972656 15.5625 24.960938 15.199219 24.929688 C 14.234375 24.847656 13.96875 24.117188 13.960938 23.742188 C 13.960938 23.71875 13.976562 21.992188 13.960938 21.425781 C 13.941406 20.800781 14.164062 20.554688 14.1875 20.53125 C 14.253906 20.464844 14.355469 20.464844 14.421875 20.53125 C 14.484375 20.59375 14.484375 20.695312 14.421875 20.761719 C 14.417969 20.769531 14.273438 20.949219 14.285156 21.417969 C 14.304688 21.980469 14.289062 23.625 14.285156 23.738281 C 14.289062 23.792969 14.335938 24.523438 15.226562 24.601562 C 16.277344 24.691406 19.789062 24.601562 19.824219 24.597656 C 19.828125 24.597656 19.832031 24.597656 19.835938 24.597656 C 19.839844 24.597656 20.386719 24.625 20.734375 24.304688 C 20.914062 24.140625 21.011719 23.902344 21.027344 23.601562 C 21.082031 22.394531 21.027344 20.949219 21.027344 20.933594 C 21.027344 20.921875 20.996094 20.546875 20.53125 20.21875 C 20.457031 20.167969 20.441406 20.066406 20.492188 19.988281 C 20.542969 19.914062 20.644531 19.894531 20.71875 19.949219 C 21.320312 20.375 21.351562 20.898438 21.355469 20.917969 C 21.355469 20.933594 21.40625 22.394531 21.355469 23.617188 C 21.335938 24.007812 21.199219 24.324219 20.953125 24.550781 C 20.523438 24.945312 19.90625 24.933594 19.824219 24.929688 C 19.6875 24.933594 18.199219 24.972656 16.894531 24.972656 Z M 16.894531 24.972656 " fill-opacity="1" fill-rule="nonzero"/><path fill="#371a45" d="M 13.5625 21.621094 C 12.84375 21.621094 12.117188 21.488281 12.078125 21.484375 C 11.988281 21.46875 11.929688 21.382812 11.945312 21.292969 C 11.964844 21.203125 12.046875 21.144531 12.136719 21.160156 C 12.148438 21.160156 13.304688 21.367188 14.101562 21.261719 C 14.191406 21.246094 14.273438 21.3125 14.285156 21.402344 C 14.296875 21.492188 14.234375 21.574219 14.144531 21.585938 C 13.960938 21.613281 13.761719 21.621094 13.5625 21.621094 Z M 13.5625 21.621094 " fill-opacity="1" fill-rule="nonzero"/><path fill="#371a45" d="M 13.214844 23.199219 C 12.625 23.199219 12.132812 23.101562 12.101562 23.09375 C 12.011719 23.078125 11.957031 22.992188 11.972656 22.902344 C 11.992188 22.8125 12.078125 22.753906 12.164062 22.769531 C 12.175781 22.773438 13.253906 22.984375 14.082031 22.773438 C 14.167969 22.75 14.257812 22.804688 14.28125 22.894531 C 14.300781 22.980469 14.25 23.070312 14.164062 23.09375 C 13.855469 23.171875 13.523438 23.199219 13.214844 23.199219 Z M 13.214844 23.199219 " fill-opacity="1" fill-rule="nonzero"/><path fill="#371a45" d="M 21.199219 21.484375 C 21.109375 21.484375 21.039062 21.414062 21.039062 21.324219 C 21.035156 21.230469 21.109375 21.15625 21.199219 21.15625 C 21.847656 21.148438 22.710938 21.101562 23.007812 20.976562 C 23.09375 20.941406 23.1875 20.984375 23.222656 21.070312 C 23.257812 21.152344 23.214844 21.25 23.132812 21.285156 C 22.707031 21.460938 21.546875 21.484375 21.203125 21.488281 C 21.203125 21.484375 21.203125 21.484375 21.199219 21.484375 Z M 21.199219 21.484375 " fill-opacity="1" fill-rule="nonzero"/><path fill="#371a45" d="M 21.929688 23.128906 C 21.539062 23.128906 21.222656 23.101562 21.195312 23.097656 C 21.105469 23.089844 21.039062 23.011719 21.046875 22.917969 C 21.054688 22.828125 21.132812 22.761719 21.222656 22.769531 C 21.238281 22.769531 22.570312 22.878906 23.109375 22.652344 C 23.191406 22.617188 23.285156 22.65625 23.320312 22.738281 C 23.355469 22.824219 23.316406 22.917969 23.234375 22.957031 C 22.910156 23.09375 22.371094 23.128906 21.929688 23.128906 Z M 21.929688 23.128906 " fill-opacity="1" fill-rule="nonzero"/><path fill="#371a45" d="M 17.449219 24.902344 C 17.375 24.902344 17.3125 24.839844 17.3125 24.765625 L 17.308594 22.914062 C 17.308594 22.746094 17.207031 22.589844 17.054688 22.519531 L 16.824219 22.410156 C 16.574219 22.296875 16.414062 22.042969 16.414062 21.765625 L 16.414062 21.320312 C 16.414062 21.246094 16.472656 21.183594 16.550781 21.183594 C 16.625 21.183594 16.6875 21.246094 16.6875 21.320312 L 16.6875 21.765625 C 16.6875 21.933594 16.785156 22.089844 16.9375 22.160156 L 17.171875 22.269531 C 17.417969 22.382812 17.582031 22.636719 17.582031 22.914062 L 17.585938 24.765625 C 17.585938 24.839844 17.523438 24.902344 17.449219 24.902344 Z M 17.449219 24.902344 " fill-opacity="1" fill-rule="nonzero"/><path fill="#371a45" d="M 15.328125 29.125 C 14.890625 28.953125 14.492188 28.585938 14.390625 28.117188 C 14.382812 28.078125 14.4375 28.058594 14.453125 28.09375 C 14.632812 28.496094 15.011719 28.730469 15.425781 28.808594 C 15.65625 28.871094 15.550781 29.210938 15.328125 29.125 Z M 15.328125 29.125 " fill-opacity="1" fill-rule="nonzero"/><path fill="#371a45" d="M 20.511719 28.746094 C 20.792969 28.582031 21.0625 28.367188 21.246094 28.089844 C 21.265625 28.058594 21.316406 28.085938 21.304688 28.121094 C 21.246094 28.289062 21.15625 28.449219 21.054688 28.59375 C 20.949219 28.746094 20.835938 28.878906 20.703125 29.011719 C 20.515625 29.171875 20.300781 28.875 20.511719 28.746094 Z M 20.511719 28.746094 " fill-opacity="1" fill-rule="nonzero"/><path fill="#371a45" d="M 29.855469 25.945312 C 29.835938 25.945312 29.816406 25.941406 29.796875 25.933594 L 28.597656 25.363281 C 28.527344 25.328125 28.5 25.246094 28.53125 25.179688 C 28.5625 25.109375 28.644531 25.082031 28.714844 25.113281 L 29.910156 25.683594 C 29.980469 25.714844 30.007812 25.796875 29.976562 25.867188 C 29.953125 25.917969 29.90625 25.945312 29.855469 25.945312 Z M 29.855469 25.945312 " fill-opacity="1" fill-rule="nonzero"/><path fill="#371a45" d="M 29.769531 26.886719 C 29.753906 26.886719 29.738281 26.882812 29.722656 26.878906 L 28.097656 26.28125 C 28.027344 26.253906 27.992188 26.175781 28.015625 26.105469 C 28.042969 26.035156 28.121094 25.996094 28.191406 26.023438 L 29.816406 26.617188 C 29.886719 26.644531 29.921875 26.722656 29.898438 26.792969 C 29.875 26.851562 29.824219 26.886719 29.769531 26.886719 Z M 29.769531 26.886719 " fill-opacity="1" fill-rule="nonzero"/><path fill="#371a45" d="M 29.574219 27.863281 C 29.558594 27.863281 29.542969 27.859375 29.527344 27.855469 C 28.820312 27.585938 28.023438 27.296875 27.855469 27.253906 C 27.8125 27.257812 27.769531 27.242188 27.738281 27.203125 C 27.699219 27.15625 27.691406 27.085938 27.730469 27.035156 C 27.804688 26.921875 27.8125 26.910156 29.625 27.597656 C 29.695312 27.625 29.730469 27.703125 29.703125 27.773438 C 29.683594 27.828125 29.628906 27.863281 29.574219 27.863281 Z M 29.574219 27.863281 " fill-opacity="1" fill-rule="nonzero"/><path fill="#371a45" d="M 29.195312 28.78125 C 29.183594 28.78125 29.167969 28.78125 29.15625 28.777344 L 27.421875 28.238281 C 27.351562 28.214844 27.308594 28.136719 27.332031 28.066406 C 27.351562 27.992188 27.429688 27.953125 27.5 27.976562 L 29.234375 28.515625 C 29.308594 28.535156 29.347656 28.613281 29.324219 28.6875 C 29.308594 28.746094 29.253906 28.78125 29.195312 28.78125 Z M 29.195312 28.78125 " fill-opacity="1" fill-rule="nonzero"/><path fill="#371a45" d="M 28.542969 29.558594 C 28.53125 29.558594 28.523438 29.554688 28.511719 29.554688 L 27.289062 29.285156 C 27.214844 29.269531 27.167969 29.195312 27.183594 29.121094 C 27.199219 29.046875 27.273438 29 27.347656 29.015625 L 28.570312 29.285156 C 28.644531 29.300781 28.691406 29.375 28.675781 29.449219 C 28.660156 29.511719 28.605469 29.558594 28.542969 29.558594 Z M 28.542969 29.558594 " fill-opacity="1" fill-rule="nonzero"/><g clip-path="url(#ee7e2f1d74)"><path fill="#371a45" d="M 6.035156 26.371094 C 5.976562 26.371094 5.925781 26.335938 5.90625 26.277344 C 5.878906 26.207031 5.917969 26.128906 5.988281 26.101562 L 7.109375 25.6875 C 7.179688 25.660156 7.261719 25.695312 7.285156 25.769531 C 7.3125 25.839844 7.277344 25.917969 7.203125 25.945312 L 6.082031 26.359375 C 6.066406 26.367188 6.050781 26.371094 6.035156 26.371094 Z M 6.035156 26.371094 " fill-opacity="1" fill-rule="nonzero"/></g><path fill="#371a45" d="M 6.296875 27.324219 C 6.242188 27.324219 6.1875 27.289062 6.167969 27.234375 C 6.144531 27.160156 6.179688 27.082031 6.253906 27.058594 L 7.496094 26.617188 C 7.566406 26.59375 7.644531 26.628906 7.667969 26.703125 C 7.695312 26.773438 7.65625 26.851562 7.585938 26.878906 L 6.34375 27.316406 C 6.328125 27.320312 6.3125 27.324219 6.296875 27.324219 Z M 6.296875 27.324219 " fill-opacity="1" fill-rule="nonzero"/><path fill="#371a45" d="M 6.597656 28.199219 C 6.539062 28.199219 6.484375 28.160156 6.46875 28.101562 C 6.445312 28.03125 6.484375 27.953125 6.554688 27.929688 L 7.921875 27.480469 C 7.996094 27.460938 8.070312 27.5 8.09375 27.570312 C 8.117188 27.644531 8.078125 27.71875 8.007812 27.746094 L 6.640625 28.191406 C 6.625 28.195312 6.609375 28.199219 6.597656 28.199219 Z M 6.597656 28.199219 " fill-opacity="1" fill-rule="nonzero"/><path fill="#371a45" d="M 7.058594 29.191406 C 7 29.191406 6.949219 29.152344 6.929688 29.09375 C 6.90625 29.023438 6.945312 28.945312 7.019531 28.921875 L 8.230469 28.523438 C 8.304688 28.5 8.378906 28.542969 8.402344 28.613281 C 8.425781 28.6875 8.386719 28.761719 8.316406 28.789062 L 7.101562 29.183594 C 7.085938 29.1875 7.074219 29.191406 7.058594 29.191406 Z M 7.058594 29.191406 " fill-opacity="1" fill-rule="nonzero"/><path fill="#371a45" d="M 19.949219 19.984375 L 18.429688 21.1875 L 17.265625 21.226562 L 14.695312 21.226562 L 14.34375 20.929688 L 14.304688 19.972656 C 14.304688 19.972656 15.066406 19.28125 14.9375 18.421875 C 15.214844 19.203125 16.09375 20.933594 18.335938 20.410156 L 18.371094 18.609375 C 18.371094 18.609375 18.863281 20.070312 19.824219 19.574219 Z M 19.949219 19.984375 " fill-opacity="0.2" fill-rule="nonzero"/><path fill="#371a45" d="M 15.140625 18.234375 C 15.082031 19.074219 14.539062 19.53125 14.539062 19.53125 L 14.445312 20.046875 C 14.003906 21.121094 12.394531 19.902344 12.394531 19.902344 L 12.230469 20.046875 L 12.1875 22.171875 L 12.148438 23.984375 L 11.957031 24.03125 L 11.339844 24.179688 L 11.308594 24.1875 C 11.320312 24.183594 11.328125 24.179688 11.339844 24.179688 L 11.339844 22.191406 C 9.667969 22.105469 9.183594 21.210938 9.113281 20.355469 C 9.113281 20.359375 9.113281 20.363281 9.117188 20.363281 C 9.28125 21.382812 10.746094 21.894531 10.445312 21.078125 C 10.144531 20.261719 10.78125 19.730469 10.78125 19.730469 L 11.339844 19.144531 L 12.75 17.667969 C 13.429688 19.335938 15.140625 18.234375 15.140625 18.234375 Z M 15.140625 18.234375 " fill-opacity="0.2" fill-rule="nonzero"/><g clip-path="url(#6544cb8f5b)"><path fill="#371a45" d="M 29.71875 27.195312 C 29.445312 28.226562 28.929688 29.253906 28.371094 29.84375 C 28.015625 30.214844 27.480469 30.347656 26.996094 30.183594 L 24.015625 29.1875 L 20.609375 28.832031 C 17.964844 29.296875 15.378906 28.921875 15.378906 28.921875 L 11.761719 29.070312 L 8.945312 30.1875 C 7.023438 30.703125 6.148438 26.632812 5.929688 25.769531 C 5.96875 25.871094 7.480469 30.203125 8.75 27.414062 L 9.09375 28.058594 C 9.09375 28.058594 10.710938 27.460938 11.816406 27.140625 C 12.925781 26.820312 13.867188 26.921875 13.867188 26.921875 C 16.441406 27.8125 18.9375 27.921875 21.277344 26.558594 L 25.308594 27.675781 C 25.304688 27.675781 27.632812 30.324219 29.71875 27.195312 Z M 29.71875 27.195312 " fill-opacity="0.2" fill-rule="nonzero"/></g><path fill="#371a45" d="M 12.015625 21.886719 C 12.015625 21.886719 12.738281 22.53125 14.101562 22.148438 C 14.035156 23.890625 21.046875 24.152344 21.109375 22.410156 L 21.109375 21.988281 C 21.109375 21.988281 22.386719 22.304688 23.078125 21.890625 L 23.097656 23.125 C 23.097656 23.125 21.933594 23.585938 21.097656 23.472656 C 21.097656 23.472656 21.800781 25.347656 19.859375 25.511719 C 17.917969 25.675781 15.03125 25.953125 14.214844 25.238281 C 13.398438 24.519531 14.03125 23.253906 14.03125 23.253906 C 14.03125 23.253906 12.289062 23.769531 12.042969 23.273438 Z M 12.015625 21.886719 " fill-opacity="0.2" fill-rule="nonzero"/><path fill="#371a45" d="M 23.171875 23.230469 L 23.203125 23.242188 L 23.96875 23.507812 L 24.175781 22.753906 C 25.273438 22.691406 26.105469 21.871094 26.070312 20.804688 C 24.738281 22.230469 23.820312 20.585938 23.820312 20.585938 L 21.988281 18.441406 C 20.855469 19.832031 19.703125 18.109375 19.703125 18.109375 C 19.542969 18.855469 19.886719 19.894531 20.152344 20.058594 C 20.152344 20.058594 20.613281 20.378906 21.597656 19.871094 L 23.167969 21.390625 Z M 23.171875 23.230469 " fill-opacity="0.2" fill-rule="nonzero"/><path fill="#371a45" d="M 14.253906 22.195312 L 18.179688 22.195312 C 18.429688 22.195312 18.667969 22.089844 18.835938 21.902344 L 20.40625 20.136719 L 19.820312 20.085938 L 18.429688 21.1875 L 14.957031 21.1875 L 14.195312 20.855469 L 14.128906 21.773438 Z M 14.253906 22.195312 " fill-opacity="0.2" fill-rule="nonzero"/><path fill="#39bdff" d="M 20.0625 22.445312 C 20.0625 22.644531 19.996094 22.8125 19.855469 22.953125 C 19.71875 23.09375 19.550781 23.164062 19.355469 23.164062 C 19.15625 23.164062 18.988281 23.09375 18.851562 22.953125 C 18.710938 22.8125 18.644531 22.644531 18.644531 22.445312 C 18.644531 22.246094 18.710938 22.078125 18.851562 21.9375 C 18.988281 21.796875 19.15625 21.730469 19.355469 21.730469 C 19.550781 21.730469 19.71875 21.796875 19.855469 21.9375 C 19.996094 22.078125 20.0625 22.246094 20.0625 22.445312 Z M 20.0625 22.445312 " fill-opacity="1" fill-rule="nonzero"/><path fill="#ffffff" d="M 19.3125 22.085938 C 19.671875 22.085938 19.96875 22.351562 20.015625 22.699219 C 20.046875 22.621094 20.0625 22.535156 20.0625 22.445312 C 20.0625 22.050781 19.746094 21.730469 19.351562 21.730469 C 18.960938 21.730469 18.640625 22.050781 18.640625 22.445312 C 18.640625 22.480469 18.644531 22.515625 18.652344 22.546875 C 18.753906 22.277344 19.011719 22.085938 19.3125 22.085938 Z M 19.3125 22.085938 " fill-opacity="0.7" fill-rule="nonzero"/><path fill="#371a45" d="M 19.355469 23.328125 C 18.871094 23.328125 18.480469 22.933594 18.480469 22.445312 C 18.480469 21.957031 18.871094 21.5625 19.355469 21.5625 C 19.835938 21.5625 20.226562 21.957031 20.226562 22.445312 C 20.226562 22.933594 19.835938 23.328125 19.355469 23.328125 Z M 19.355469 21.894531 C 19.050781 21.894531 18.808594 22.140625 18.808594 22.445312 C 18.808594 22.75 19.050781 23 19.355469 23 C 19.65625 23 19.898438 22.75 19.898438 22.445312 C 19.898438 22.140625 19.65625 21.894531 19.355469 21.894531 Z M 19.355469 21.894531 " fill-opacity="1" fill-rule="nonzero"/></svg>